<?xml version="1.0" encoding="UTF-8"?>
<svg id="Layer_1" data-name="Layer 1" xmlns="http://www.w3.org/2000/svg" viewBox="0 0 374.13 157.38">
  <defs>
    <style>
      .cls-1 {
        fill: #4100ff;
      }
    </style>
  </defs>
  <g>
    <path class="cls-1" d="M175.68,52.87v-28h10.96c2.67,0,4.98.59,6.94,1.76,1.96,1.17,3.48,2.81,4.56,4.92,1.08,2.11,1.62,4.55,1.62,7.32s-.53,5.25-1.6,7.34c-1.07,2.09-2.58,3.73-4.54,4.9s-4.29,1.76-6.98,1.76h-10.96ZM186.44,29.03h-6.44v19.68h6.44c2.83,0,5.02-.87,6.58-2.62,1.56-1.75,2.34-4.15,2.34-7.22s-.79-5.44-2.36-7.2c-1.57-1.76-3.76-2.64-6.56-2.64Z"/>
    <path class="cls-1" d="M205.68,52.87v-28h17.64v4.16h-13.32v7.4h11.12v4.16h-11.12v8.12h13.32v4.16h-17.64Z"/>
    <path class="cls-1" d="M268.85,53.27c-1.97,0-3.79-.36-5.46-1.08-1.67-.72-3.12-1.73-4.36-3.02-1.24-1.29-2.2-2.81-2.88-4.56-.68-1.75-1.02-3.66-1.02-5.74s.34-3.99,1.02-5.74c.68-1.75,1.64-3.27,2.88-4.56,1.24-1.29,2.69-2.3,4.36-3.02,1.67-.72,3.49-1.08,5.46-1.08s3.79.36,5.46,1.08c1.67.72,3.12,1.73,4.36,3.04,1.24,1.31,2.2,2.83,2.88,4.58.68,1.75,1.02,3.65,1.02,5.7s-.34,3.95-1.02,5.7c-.68,1.75-1.64,3.27-2.88,4.58s-2.69,2.32-4.36,3.04c-1.67.72-3.49,1.08-5.46,1.08ZM268.85,49.07c1.79,0,3.39-.44,4.8-1.32,1.41-.88,2.52-2.09,3.32-3.64s1.2-3.29,1.2-5.24-.4-3.69-1.2-5.24c-.8-1.55-1.91-2.76-3.32-3.64-1.41-.88-3.01-1.32-4.8-1.32s-3.42.44-4.82,1.32c-1.4.88-2.5,2.09-3.3,3.62-.8,1.53-1.2,3.29-1.2,5.26s.4,3.73,1.2,5.26c.8,1.53,1.9,2.74,3.3,3.62,1.4.88,3.01,1.32,4.82,1.32Z"/>
    <path class="cls-1" d="M288.79,52.87v-28h11.4c1.52,0,2.9.38,4.14,1.14,1.24.76,2.23,1.79,2.98,3.1.75,1.31,1.12,2.76,1.12,4.36s-.37,3.05-1.12,4.36c-.75,1.31-1.74,2.35-2.98,3.14-1.24.79-2.62,1.18-4.14,1.18h-7.08v10.72h-4.32ZM293.11,37.99h7c.72,0,1.37-.21,1.96-.62.59-.41,1.06-.96,1.42-1.64.36-.68.54-1.43.54-2.26,0-1.23-.39-2.27-1.16-3.14-.77-.87-1.69-1.3-2.76-1.3h-7v8.96Z"/>
    <path class="cls-1" d="M322.72,53.27c-4.53,0-8.05-1.81-10.56-5.44l2.96-3.4c1.31,1.87,2.56,3.16,3.76,3.88,1.2.72,2.63,1.08,4.28,1.08,1.52,0,2.81-.35,3.86-1.04,1.05-.69,1.58-1.59,1.58-2.68,0-1.23-.52-2.23-1.56-3.02s-2.68-1.39-4.92-1.82c-5.71-1.12-8.56-3.96-8.56-8.52,0-1.52.43-2.87,1.28-4.04s2.01-2.1,3.46-2.78,3.09-1.02,4.9-1.02c4.4,0,7.56,1.64,9.48,4.92l-3.04,3c-.8-1.31-1.75-2.31-2.86-3-1.11-.69-2.34-1.04-3.7-1.04-1.55,0-2.8.35-3.76,1.06-.96.71-1.44,1.63-1.44,2.78s.43,2.07,1.3,2.78c.87.71,2.35,1.27,4.46,1.7,2.93.61,5.21,1.6,6.84,2.96,1.63,1.36,2.44,3,2.44,4.92,0,2.67-.91,4.79-2.74,6.36-1.83,1.57-4.31,2.36-7.46,2.36Z"/>
    <path class="cls-1" d="M175.68,92.87v-28h10.96c2.67,0,4.98.59,6.94,1.76,1.96,1.17,3.48,2.81,4.56,4.92,1.08,2.11,1.62,4.55,1.62,7.32s-.53,5.25-1.6,7.34c-1.07,2.09-2.58,3.73-4.54,4.9s-4.29,1.76-6.98,1.76h-10.96ZM186.44,69.03h-6.44v19.68h6.44c2.83,0,5.02-.87,6.58-2.62,1.56-1.75,2.34-4.15,2.34-7.22s-.79-5.44-2.36-7.2c-1.57-1.76-3.76-2.64-6.56-2.64Z"/>
    <path class="cls-1" d="M265.08,93.27c-4.53,0-8.05-1.81-10.56-5.44l2.96-3.4c1.31,1.87,2.56,3.16,3.76,3.88,1.2.72,2.63,1.08,4.28,1.08,1.52,0,2.81-.35,3.86-1.04,1.05-.69,1.58-1.59,1.58-2.68,0-1.23-.52-2.23-1.56-3.02s-2.68-1.39-4.92-1.82c-5.71-1.12-8.56-3.96-8.56-8.52,0-1.52.43-2.87,1.28-4.04s2.01-2.1,3.46-2.78,3.09-1.02,4.9-1.02c4.4,0,7.56,1.64,9.48,4.92l-3.04,3c-.8-1.31-1.75-2.31-2.86-3-1.11-.69-2.34-1.04-3.7-1.04-1.55,0-2.8.35-3.76,1.06-.96.71-1.44,1.63-1.44,2.78s.43,2.07,1.3,2.78c.87.71,2.35,1.27,4.46,1.7,2.93.61,5.21,1.6,6.84,2.96,1.63,1.36,2.44,3,2.44,4.92,0,2.67-.91,4.79-2.74,6.36-1.83,1.57-4.31,2.36-7.46,2.36Z"/>
    <path class="cls-1" d="M175.68,132.87v-28h10.96c2.67,0,4.98.59,6.94,1.76,1.96,1.17,3.48,2.81,4.56,4.92,1.08,2.11,1.62,4.55,1.62,7.32s-.53,5.25-1.6,7.34c-1.07,2.09-2.58,3.73-4.54,4.9s-4.29,1.76-6.98,1.76h-10.96ZM186.44,109.03h-6.44v19.68h6.44c2.83,0,5.02-.87,6.58-2.62,1.56-1.75,2.34-4.15,2.34-7.22s-.79-5.44-2.36-7.2c-1.57-1.76-3.76-2.64-6.56-2.64Z"/>
    <path class="cls-1" d="M205.68,132.87v-28h17.64v4.16h-13.32v7.4h11.12v4.16h-11.12v8.12h13.32v4.16h-17.64Z"/>
    <path class="cls-1" d="M230.72,132.87v-28h3.88l15.68,21v-21h4.32v28h-3.96l-15.6-20.47v20.47h-4.32Z"/>
    <path class="cls-1" d="M322.49,132.87v-28h11.92c1.6,0,3.07.39,4.42,1.18,1.35.79,2.42,1.85,3.22,3.2.8,1.35,1.2,2.86,1.2,4.54s-.51,3.28-1.52,4.72c-1.01,1.44-2.31,2.49-3.88,3.16l6.52,11.24-5.24-.04-5.92-10.52h-6.4v10.52h-4.32ZM326.81,118.19h8c1.17,0,2.14-.43,2.9-1.28.76-.85,1.14-1.91,1.14-3.16,0-1.39-.49-2.52-1.46-3.4-.97-.88-2.21-1.32-3.7-1.32h-6.88v9.16Z"/>
    <path class="cls-1" d="M350.17,132.87v-28h4.32v13.32l13.72-13.32h5.68l-12.08,11.72,12.32,16.28h-5.4l-9.96-13.32-4.28,4.16v9.16h-4.32Z"/>
    <polygon class="cls-1" points="248.74 24.87 240.1 46.7 231.46 24.87 226.54 24.87 237.74 52.87 240.1 52.87 242.46 52.87 253.66 24.87 248.74 24.87"/>
    <polygon class="cls-1" points="248.18 64.87 240.1 76.54 232.02 64.87 226.82 64.87 237.86 80.47 237.86 92.87 240.1 92.87 242.34 92.87 242.34 80.47 253.38 64.87 248.18 64.87"/>
    <path class="cls-1" d="M217.8,64.87h-4.16l-10.84,28h4.4l2.64-6.96h11.76l2.64,6.96h4.4l-10.84-28ZM215.72,81.75h-4.28l4.28-11.23,4.28,11.23h-4.28Z"/>
    <path class="cls-1" d="M307.93,104.87h-4.16l-10.84,28h4.4l2.64-6.96h11.76l2.64,6.96h4.4l-10.84-28ZM305.85,121.75h-4.28l4.28-11.23,4.28,11.23h-4.28Z"/>
    <path class="cls-1" d="M285.19,104.87l-9.16,14.92-9.16-14.92h-4.24v28h4.32v-20.09l7.64,12.05h2.88l7.64-12.05v20.09h4.32v-28h-4.24Z"/>
  </g>
  <path class="cls-1" d="M129.89,92.96c.47-1.06,0-2.3-1.07-2.77-1.06-.47-2.3,0-2.77,1.07-1.79,4.05-5.28,6.97-9.58,8.01-5.47,1.33-11.2-.72-14.59-5.21-.7-.93-2.01-1.11-2.94-.41-.93.7-1.11,2.02-.41,2.94,2.75,3.64,6.68,6.04,10.97,6.91.31.86.54,1.75.68,2.66.87,5.56-1.65,11.1-6.41,14.1-.98.62-1.27,1.92-.65,2.9.4.63,1.08.98,1.78.98.38,0,.77-.1,1.12-.32,6.18-3.9,9.44-11.08,8.32-18.3-.09-.56-.21-1.11-.35-1.66,1.16-.05,2.32-.21,3.47-.49,5.57-1.35,10.1-5.14,12.43-10.39ZM144.68,100.86c0-4.67-1.62-9.06-4.6-12.57,2.42-3.32,3.74-7.32,3.74-11.47,0-4.77-1.71-9.25-4.81-12.79,4.04-8.06,2.43-18.16-4.59-24.49-1.53-1.38-3.23-2.5-5.02-3.35.09-.75.14-1.5.14-2.26,0-10.91-8.88-19.79-19.79-19.79-.77,0-1.54.05-2.29.14-.08-.3-.16-.61-.26-.91-2.63-8-10.06-13.37-18.49-13.37-7.34,0-13.73,4.08-17.05,10.09-2.39-2.18-7.77-7.04-9.7-8.79-.39-.35-.89-.54-1.41-.54h-12.01c-.56,0-1.09.22-1.48.62l-4.82,4.82c-.82.82-.82,2.15,0,2.97.82.82,2.15.82,2.97,0l4.2-4.2h10.33c3.38,3.06,7.87,7.12,9.5,8.61v13.41l-2.08-2.08c-.82-.82-2.15-.82-2.97,0-.82.82-.82,2.15,0,2.97l5.66,5.66c.1.1.2.18.32.26.04.02.08.04.12.06.08.05.16.09.24.13.05.02.1.03.15.05.08.03.16.06.24.07.14.03.27.04.42.04s.28-.01.42-.04c.08-.02.16-.05.24-.07.05-.02.1-.03.15-.05.09-.04.17-.08.24-.13.04-.02.08-.04.12-.06.11-.08.22-.16.32-.26l5.66-5.66c.82-.82.82-2.15,0-2.97-.82-.82-2.15-.82-2.97,0l-2.08,2.08v-7.53c0-8.41,6.84-15.26,15.26-15.26,6.61,0,12.43,4.21,14.5,10.49.06.17.1.35.15.53-3.16,1.08-6.05,2.95-8.33,5.48-.78.86-.71,2.19.16,2.97.86.78,2.19.71,2.97-.16,2.96-3.28,7.18-5.17,11.6-5.17,8.6,0,15.59,7,15.59,15.59,0,.28-.02.55-.04.83-4.56-1.07-9.46-.57-13.88,1.64-1.04.52-1.46,1.78-.94,2.82.52,1.04,1.78,1.46,2.82.94,6.08-3.04,13.26-2.05,18.3,2.5,6.7,6.05,7.23,16.43,1.18,23.13-4.77,5.29-12.26,6.87-18.74,4.01-2.19-2.46-5.26-3.93-8.61-4.07-1.17-.05-2.14.85-2.19,2.01-.05,1.16.85,2.14,2.01,2.19,2.52.11,4.79,1.35,6.24,3.41,2.54,3.62,1.66,8.64-1.96,11.19-.95.67-1.18,1.98-.51,2.93.41.58,1.06.89,1.72.89.42,0,.84-.12,1.2-.38,2.67-1.88,4.46-4.68,5.02-7.9.3-1.7.23-3.4-.17-5.02,1.28.25,2.58.38,3.87.38,5.67,0,11.22-2.37,15.24-6.81.25-.28.47-.58.71-.87,1.95,2.61,3.01,5.75,3.01,9.08,0,3.76-1.38,7.37-3.88,10.17-.75.84-.71,2.12.1,2.91,2.99,2.9,4.64,6.79,4.64,10.96s-1.76,8.23-4.78,11.09c-1.12-2.11-2.58-4.04-4.37-5.68-.85-.79-2.18-.73-2.97.12-.79.85-.73,2.18.12,2.97,3.49,3.21,5.49,7.77,5.49,12.52,0,9.38-7.63,17.01-17.01,17.01-.82,0-1.63-.06-2.42-.17,0,0,0,0,0,0-5.5-.78-10.27-4.18-12.8-9.26-.52-1.04-1.78-1.46-2.82-.94-1.04.52-1.46,1.78-.94,2.82,2.72,5.46,7.52,9.35,13.17,10.95-3.18,5.7-9.15,9.27-15.83,9.27-10.01,0-18.15-8.14-18.15-18.15,0-8.04,5.16-15.02,12.85-17.36,1.11-.34,1.73-1.51,1.4-2.62-.34-1.11-1.51-1.73-2.62-1.4-9.46,2.88-15.82,11.48-15.82,21.38,0,4.45,1.31,8.6,3.56,12.08-.86,1.07-1.82,2.05-2.88,2.94-5.95,4.96-14.14,6.12-21.19,3.09v-20.51c0-.56-.22-1.09-.62-1.48l-7.9-7.9h2.94c1.16,0,2.1-.94,2.1-2.1s-.94-2.1-2.1-2.1h-8.01c-.14,0-.28.01-.41.04-.06.01-.12.04-.18.05-.07.02-.14.04-.21.07-.07.03-.14.07-.2.11-.05.03-.11.05-.16.09-.23.15-.43.35-.58.58-.03.05-.06.11-.09.16-.04.07-.08.13-.1.2-.03.07-.05.14-.07.21-.02.06-.04.12-.05.18-.03.14-.04.27-.04.41v8.01c0,1.16.94,2.1,2.1,2.1s2.1-.94,2.1-2.1v-2.94l7.28,7.28v20.99s0,.08.01.12c0,.07.01.15.02.22.01.07.03.13.04.2.02.06.04.13.06.19.02.07.05.13.08.19.03.06.06.12.09.17.04.06.07.11.11.17.04.05.08.11.13.16.05.05.1.1.15.14.05.04.1.09.15.13.06.05.13.09.19.12.03.02.06.05.1.06.04.02.08.04.12.06,0,0,0,0,0,0,3.49,1.73,7.25,2.59,10.99,2.59,5.66,0,11.28-1.95,15.81-5.73,1.03-.86,1.97-1.8,2.85-2.81,4.07,4.25,9.8,6.91,16.13,6.91,8.72,0,16.47-4.94,20.17-12.72.49.03.98.05,1.47.05,11.69,0,21.21-9.51,21.21-21.21,0-1.98-.29-3.93-.82-5.81,4.61-3.68,7.33-9.25,7.33-15.2ZM22.06,127.64v-13.12l12.1-12.1v2.94c0,1.16.94,2.1,2.1,2.1s2.1-.94,2.1-2.1v-8.01c0-.14-.01-.28-.04-.41-.01-.06-.04-.12-.05-.18-.02-.07-.04-.14-.07-.21-.03-.07-.07-.13-.1-.2-.03-.05-.05-.11-.09-.16-.15-.23-.35-.43-.58-.58-.05-.03-.11-.06-.16-.09-.07-.04-.13-.08-.2-.11-.07-.03-.14-.04-.21-.07-.06-.02-.12-.04-.18-.05-.14-.03-.27-.04-.41-.04h-8.01c-1.16,0-2.1.94-2.1,2.1s.94,2.1,2.1,2.1h2.94l-12.72,12.72c-.39.39-.62.93-.62,1.48v14.86c0,.56.22,1.09.62,1.48l18.26,18.26c.41.41.95.62,1.48.62s1.07-.21,1.48-.62c.82-.82.82-2.15,0-2.97l-17.64-17.64ZM2.1,82.02c1.16,0,2.1-.94,2.1-2.1v-10.61l5.54-5.54c.39-.39.62-.93.62-1.48v-18.29l3.85-3.85v2.94c0,1.16.94,2.1,2.1,2.1s2.1-.94,2.1-2.1v-8.01h0c0-.14-.01-.28-.04-.41-.01-.06-.03-.12-.05-.18-.02-.07-.04-.15-.07-.22-.03-.07-.07-.13-.1-.2-.03-.05-.05-.11-.09-.16-.15-.23-.35-.43-.58-.58-.05-.03-.11-.06-.16-.09-.07-.04-.13-.08-.2-.11-.07-.03-.14-.04-.21-.07-.06-.02-.12-.04-.18-.05-.14-.03-.27-.04-.41-.04h-8.01c-1.16,0-2.1.94-2.1,2.1s.94,2.1,2.1,2.1h2.94l-4.47,4.47c-.39.39-.62.93-.62,1.48v18.29l-5.54,5.54c-.39.39-.62.93-.62,1.48v11.48c0,1.16.94,2.1,2.1,2.1ZM64.5,124.57c1.16,0,2.1-.94,2.1-2.1v-18.89c7.79-2.1,13.85-8.33,15.67-16.28.26-1.15.42-2.31.5-3.48.25.01.5.04.75.04,5.05,0,9.71-2.3,12.79-6.31.71-.92.53-2.24-.39-2.94-.92-.71-2.24-.53-2.94.39-2.28,2.97-5.72,4.67-9.46,4.67-6.57,0-11.91-5.34-11.91-11.91,0-1.16-.94-2.1-2.1-2.1s-2.1.94-2.1,2.1c0,7.17,4.71,13.26,11.2,15.34-.04,1.1-.18,2.2-.43,3.28-1.5,6.55-6.55,11.64-13,13.25l-16.11-16.11v-12.72l2.08,2.08c.82.82,2.15.82,2.97,0,.82-.82.82-2.15,0-2.97l-5.66-5.66c-.1-.1-.21-.19-.32-.26-.05-.03-.11-.06-.16-.09-.07-.04-.13-.08-.2-.11-.07-.03-.14-.04-.21-.07-.06-.02-.12-.04-.18-.05-.27-.05-.55-.05-.82,0-.06.01-.12.04-.18.05-.07.02-.14.04-.21.07-.07.03-.14.07-.2.11-.05.03-.11.05-.16.09-.12.08-.22.16-.32.26l-5.66,5.66c-.82.82-.82,2.15,0,2.97.41.41.95.62,1.48.62s1.07-.21,1.48-.62l2.08-2.08v13.58c0,.56.22,1.09.62,1.48l16.93,16.93v19.69c0,1.16.94,2.1,2.1,2.1ZM27.99,29.57c1.16,0,2.1-.94,2.1-2.1v-2.94l32.13,32.13s.01,0,.02.01c.07.07.16.14.24.2.03.02.05.04.08.06.11.07.23.14.36.19.04.02.08.02.12.04.09.03.17.06.26.08.11.02.23.03.34.03.02,0,.04,0,.06,0h0s0,0,0,0c.03,0,.06,0,.09,0,6.58-.27,12.89-2.9,17.72-7.3,2.76,4.57,7.48,7.91,13.17,8.7.85.12,1.7.17,2.54.17,4.79,0,9.36-1.86,12.83-5.3.83-.82.83-2.15.02-2.97-.82-.83-2.15-.83-2.97-.02-3.15,3.11-7.46,4.55-11.84,3.95-7.7-1.06-13.11-8.19-12.05-15.89.16-1.15-.65-2.21-1.79-2.37-1.15-.16-2.21.65-2.37,1.79-.37,2.72-.11,5.38.65,7.85-4,4.12-9.44,6.67-15.17,7.13l-31.46-31.46h2.94c1.16,0,2.1-.94,2.1-2.1s-.94-2.1-2.1-2.1h-8.01c-.14,0-.28.01-.41.04-.06.01-.12.04-.18.05-.07.02-.14.04-.21.07-.07.03-.14.07-.2.11-.05.03-.11.05-.16.09-.23.15-.43.35-.58.58-.03.05-.06.11-.09.16-.04.07-.08.13-.1.2-.03.07-.05.14-.07.21-.02.06-.04.12-.05.18-.03.14-.04.27-.04.41v8.01c0,1.16.94,2.1,2.1,2.1ZM10.11,99.72h-2.94l20.35-20.35c.39-.39.62-.93.62-1.48v-21.53l4.74-4.74c.82-.82.82-2.15,0-2.97-.82-.82-2.15-.82-2.97,0l-5.35,5.35c-.39.39-.62.93-.62,1.48v21.53l-19.74,19.74v-2.94c0-1.16-.94-2.1-2.1-2.1s-2.1.94-2.1,2.1v8.01c0,.14.01.28.04.41.01.06.04.12.05.18.02.07.04.14.07.21.03.07.07.13.1.2.03.05.05.11.09.16.15.23.35.43.58.58.05.03.11.06.16.09.07.04.13.08.2.11.07.03.14.05.21.07.06.02.12.04.18.05.14.03.27.04.41.04h8.01c1.16,0,2.1-.94,2.1-2.1s-.94-2.1-2.1-2.1Z"/>
</svg>